<?xml version="1.0" encoding="UTF-8" standalone="no"?>
<svg
   xmlns:freecad="http://www.freecadweb.org/wiki/index.php?title=Svg_Namespace"
   xmlns:dc="http://purl.org/dc/elements/1.1/"
   xmlns:cc="http://creativecommons.org/ns#"
   xmlns:rdf="http://www.w3.org/1999/02/22-rdf-syntax-ns#"
   xmlns:svg="http://www.w3.org/2000/svg"
   xmlns="http://www.w3.org/2000/svg"
   xmlns:sodipodi="http://sodipodi.sourceforge.net/DTD/sodipodi-0.dtd"
   xmlns:inkscape="http://www.inkscape.org/namespaces/inkscape"
   version="1.1"
   width="594mm"
   height="420mm"
   viewBox="0 0 594 420"
   id="svg183"
   sodipodi:docname="A2_Landscape_ISO7200.svg"
   inkscape:version="0.92.5 (2060ec1f9f, 2020-04-08)">
  <metadata
     id="metadata189">
    <rdf:RDF>
      <cc:Work
         rdf:about="">
        <dc:format>image/svg+xml</dc:format>
        <dc:type
           rdf:resource="http://purl.org/dc/dcmitype/StillImage" />
      </cc:Work>
    </rdf:RDF>
  </metadata>
  <defs
     id="defs187" />
  <sodipodi:namedview
     pagecolor="#ffffff"
     bordercolor="#666666"
     borderopacity="1"
     objecttolerance="10"
     gridtolerance="10"
     guidetolerance="10"
     inkscape:pageopacity="0"
     inkscape:pageshadow="2"
     inkscape:window-width="1868"
     inkscape:window-height="1016"
     id="namedview185"
     showgrid="false"
     inkscape:snap-center="true"
     inkscape:snap-object-midpoints="true"
     inkscape:snap-midpoints="true"
     inkscape:object-paths="true"
     inkscape:snap-intersection-paths="true"
     inkscape:snap-smooth-nodes="true"
     inkscape:snap-text-baseline="true"
     inkscape:snap-bbox="false"
     inkscape:bbox-paths="true"
     inkscape:bbox-nodes="true"
     inkscape:snap-bbox-edge-midpoints="true"
     inkscape:snap-bbox-midpoints="true"
     inkscape:zoom="3.3285405"
     inkscape:cx="1715.9428"
     inkscape:cy="1320.1804"
     inkscape:window-x="52"
     inkscape:window-y="227"
     inkscape:window-maximized="1"
     inkscape:current-layer="svg183"
     inkscape:snap-nodes="true" />
  <!-- Working space 20 10 584 410 -->
  <!-- Title block 404 350 584 410 -->
  <g
     id="g111">
    <rect
       id="drawing-border"
       style="fill:none;stroke:#000000;stroke-width:0.35;stroke-linecap:miter;stroke-miterlimit:4"
       width="564"
       height="400"
       x="20"
       y="10" />
    <!-- width-30, height-20 -->
    <g
       transform="translate(384,123)"
       id="g109">
      <!-- A4 Portrait based for other formats width-210, height-297 -->
      <!--        page       rect   translation
			               w    h    rw   rh   tx   ty
			        A4-P  210  297  180  277    0    0
			        A3-L  420  297  390  277  210    0
			        A2-L  594  420  564  400  384  123
			        A1-L  841  594  811  574  631  297
			        A0-L 1189  841 1159  821  979  544
			-->
      <g
         id="titleblock-structure"
         style="fill:none;stroke:#000000;stroke-width:0.35;stroke-linecap:miter;stroke-miterlimit:4">
        <rect
           width="180"
           height="60"
           x="20"
           y="227"
           id="rect3" />
        <path
           d="m 20,239 h 180"
           id="path5" />
        <path
           d="m 80,227 v 12"
           id="path7" />
        <path
           d="m 140,239 v 48"
           id="path9" />
        <path
           d="m 160,239 v 12"
           id="path11" />
        <path
           d="m 180,239 v 12"
           id="path13" />
        <path
           d="m 140,251 h 60"
           id="path15" />
        <path
           d="m 140,275 h 60"
           id="path17" />
        <path
           d="m 180,275 v 12"
           id="path19" />
      </g>
      <g
         id="titleblock-text-non-editable"
         style="font-size:3px;text-anchor:start;fill:#000000;font-family:osifont"
         xml:space="preserve">
				<text
   x="21"
   y="230"
   id="text22">Created by:</text>

				<text
   x="81"
   y="230"
   id="text24">Title:</text>

				<text
   x="21"
   y="242"
   id="text26">Supplementary information:</text>

				<text
   x="141"
   y="242"
   id="text28">Size:</text>

				<text
   x="161"
   y="242"
   id="text30">Sheet:</text>

				<text
   x="181"
   y="242"
   id="text32">Scale:</text>

				<text
   x="141"
   y="254"
   id="text34">Part number:</text>

				<text
   x="141"
   y="266"
   id="text36">Drawing number:</text>

				<text
   x="141"
   y="278"
   id="text38">Date:</text>

				<text
   x="181"
   y="278"
   id="text40">Revision:</text>

			</g>      <g
         id="titleblock-text-editable"
         style="font-size:5px;text-anchor:middle;fill:#000000;font-family:osifont"
         xml:space="preserve">
				<text
   freecad:editable="AUTHOR NAME"
   x="50"
   y="236"
   id="text45"><tspan
     id="tspan43">AUTHOR NAME</tspan></text>

				<text
   freecad:editable="DRAWING TITLE"
   x="140"
   y="236"
   id="text49"><tspan
     id="tspan47">DRAWING TITLE</tspan></text>

				<text
   freecad:editable="SI-1"
   x="80"
   y="248"
   id="text53"><tspan
     id="tspan51" /></text>

				<text
   freecad:editable="SI-2"
   x="80"
   y="255"
   id="text57"><tspan
     id="tspan55" /></text>

				<text
   freecad:editable="FreeCAD DRAWING"
   x="80"
   y="262"
   id="text61"><tspan
     id="tspan59">FreeCAD DRAWING</tspan></text>

				<text
   freecad:editable="SI-4"
   x="80"
   y="269"
   id="text65"><tspan
     id="tspan63" /></text>

				<text
   freecad:editable="SI-5"
   x="80"
   y="276"
   id="text69"><tspan
     id="tspan67" /></text>

				<text
   freecad:editable="SI-6"
   x="80"
   y="283"
   id="text73"><tspan
     id="tspan71" /></text>

				<text
   freecad:editable="FC-SI"
   x="150"
   y="248"
   id="text77"><tspan
     id="tspan75">A2</tspan></text>

				<text
   freecad:editable="FC-SH"
   x="170"
   y="248"
   id="text81"><tspan
     id="tspan79">X / Y</tspan></text>

				<text
   freecad:editable="FC-SC"
   x="190"
   y="248"
   id="text85"><tspan
     id="tspan83">SCALE</tspan></text>

				<text
   freecad:editable="PN"
   x="170"
   y="260"
   id="text89"><tspan
     id="tspan87">PN</tspan></text>

				<text
   freecad:editable="DN"
   x="170"
   y="272"
   id="text93"><tspan
     id="tspan91">DN</tspan></text>

				<text
   freecad:editable="FC-DATE"
   x="160"
   y="284"
   id="text97"><tspan
     id="tspan95">DD/MM/YYYY</tspan></text>

				<text
   freecad:editable="FC-REV"
   x="190"
   y="284"
   id="text101"><tspan
     id="tspan99">REV A</tspan></text>

			</g>      <!-- Set display:none to hide FreeCAD Logo -->
      <g
         style="display:inline"
         id="freecad-logo"
         transform="translate(128.5,276)"
         fill-rule="evenodd"
         stroke="#000"
         stroke-width="0.35"
         fill="none">
        <path
           d="m0.1524 0.15254v8.8549h1.9744v-3.4652h1.396v-1.3661h-1.396v-1.4745h3.4391v-2.5441l-5.4135-0.005z"
           id="path104" />
        <path
           d="m7.7927 3.4504-0.50715-0.176-0.48387-1.2366-0.76115 0.04-0.34718 1.2787-0.4859 0.23269-1.2119-0.53015-0.51188 0.56882 0.65892 1.1485-0.18006 0.50567-1.2366 0.48387 0.044064 0.76263 1.2787 0.34718 0.23269 0.4859-0.53421 1.2104 0.56882 0.51188 1.1485-0.65891 0.50973 0.18155 0.4798 1.2351 0.7667-0.04258 0.34311-1.2802 0.4859-0.23269 1.2145 0.5357 0.51188-0.56882-0.65891-1.1485 0.17748-0.51122 1.2351-0.4798-0.03851-0.76521-1.2802-0.34311-0.23269-0.4859 0.53163-1.216-0.56881-0.51184zm-0.5715 1.2244 0.23576 0.13679 0.20426 0.18519 0.16353 0.22101 0.11763 0.24572 0.06916 0.26489 0.01146 0.27146-0.03921 0.27139-0.08948 0.25764-0.14234 0.23834-0.17964 0.20167-0.22101 0.16353-0.24572 0.11763-0.26489 0.06916-0.27295 0.01553-0.2719-0.04-0.2576-0.089-0.2383-0.143-0.2002-0.183-0.165-0.217-0.1177-0.246-0.0676-0.269-0.0156-0.273 0.039206-0.2714 0.089484-0.25764 0.14085-0.23427 0.18113-0.20574 0.22101-0.16352 0.24572-0.11763 0.26895-0.06768 0.27147-0.01146 0.27139 0.03921 0.25764 0.08948z"
           id="path106" />
      </g>
    </g>
  </g>
  <g
     id="Ortho_0_0"
     transform="rotate(90,122,314.333) translate(122,314.333) scale(1,1)">
    <g
       fill="none"
       stroke="rgb(0, 0, 0)"
       stroke-linecap="butt"
       stroke-linejoin="miter"
       stroke-width="0.350000"
       transform="scale(1,-1)"
       id="g117">
      <path
         id="1"
         d=" M 0 -4 L 4 -4 " />
      <path
         id="2"
         d=" M 4 -4 L 4 364 " />
      <path
         id="3"
         d=" M 0 -4 L 0 364 " />
      <path
         id="4"
         d=" M 0 364 L 4 364 " />
    </g>
  </g>
  <path
     style="fill:none;stroke:#000000;stroke-width:0.34999999;stroke-linecap:butt;stroke-linejoin:miter"
     id="path120"
     d="m 118,282.667 v -241"
     inkscape:connector-curvature="0" />
  <path
     style="fill:none;stroke:#000000;stroke-width:0.34999999;stroke-linecap:butt;stroke-linejoin:miter"
     id="path122"
     d="M 118,282.667 H 486"
     inkscape:connector-curvature="0" />
  <path
     style="fill:none;stroke:#000000;stroke-width:0.34999999;stroke-linecap:butt;stroke-linejoin:miter"
     id="path124"
     d="M 118,41.667 H 486"
     inkscape:connector-curvature="0" />
  <path
     style="fill:none;stroke:#000000;stroke-width:0.34999999;stroke-linecap:butt;stroke-linejoin:miter"
     id="path126"
     d="m 486,282.667 v -241"
     inkscape:connector-curvature="0" />
  <circle
     style="fill:none;stroke:#000000;stroke-width:0.34999999;stroke-linecap:butt;stroke-linejoin:miter"
     cx="144"
     cy="-66.667"
     r="1.6"
     id="circle128"
     transform="scale(1,-1)" />
  <circle
     style="fill:none;stroke:#000000;stroke-width:0.34999999;stroke-linecap:butt;stroke-linejoin:miter"
     cx="144"
     cy="-78.667"
     r="7.5999999"
     id="circle130"
     transform="scale(1,-1)" />
  <circle
     style="fill:none;stroke:#000000;stroke-width:0.34999999;stroke-linecap:butt;stroke-linejoin:miter"
     cx="144"
     cy="-90.667"
     r="1.6"
     id="circle132"
     transform="scale(1,-1)" />
  <circle
     style="fill:none;stroke:#000000;stroke-width:0.34999999;stroke-linecap:butt;stroke-linejoin:miter"
     cx="141"
     cy="-162.16701"
     r="1.6"
     id="circle134"
     transform="scale(1,-1)" />
  <circle
     style="fill:none;stroke:#000000;stroke-width:0.34999999;stroke-linecap:butt;stroke-linejoin:miter"
     cx="133"
     cy="-162.16701"
     r="5.5999999"
     id="circle136"
     transform="scale(1,-1)" />
  <circle
     style="fill:none;stroke:#000000;stroke-width:0.34999999;stroke-linecap:butt;stroke-linejoin:miter"
     cx="471"
     cy="-162.16701"
     r="5.5999999"
     id="circle138"
     transform="scale(1,-1)" />
  <circle
     style="fill:none;stroke:#000000;stroke-width:0.34999999;stroke-linecap:butt;stroke-linejoin:miter"
     cx="463"
     cy="-162.16701"
     r="1.6"
     id="circle140"
     transform="scale(1,-1)" />
  <circle
     style="fill:none;stroke:#000000;stroke-width:0.34999999;stroke-linecap:butt;stroke-linejoin:miter"
     cx="471"
     cy="-154.16701"
     r="1.6"
     id="circle142"
     transform="scale(1,-1)" />
  <circle
     style="fill:none;stroke:#000000;stroke-width:0.34999999;stroke-linecap:butt;stroke-linejoin:miter"
     cx="460"
     cy="-90.667"
     r="1.6"
     id="circle144"
     transform="scale(1,-1)" />
  <circle
     style="fill:none;stroke:#000000;stroke-width:0.34999999;stroke-linecap:butt;stroke-linejoin:miter"
     cx="460"
     cy="-78.667"
     r="7.5999999"
     id="circle146"
     transform="scale(1,-1)" />
  <circle
     style="fill:none;stroke:#000000;stroke-width:0.34999999;stroke-linecap:butt;stroke-linejoin:miter"
     cx="460"
     cy="-66.667"
     r="1.6"
     id="circle148"
     transform="scale(1,-1)" />
  <circle
     style="fill:none;stroke:#000000;stroke-width:0.34999999;stroke-linecap:butt;stroke-linejoin:miter"
     cx="471"
     cy="-170.16701"
     r="1.6"
     id="circle150"
     transform="scale(1,-1)" />
  <circle
     style="fill:none;stroke:#000000;stroke-width:0.34999999;stroke-linecap:butt;stroke-linejoin:miter"
     cx="133"
     cy="-170.16701"
     r="1.6"
     id="circle152"
     transform="scale(1,-1)" />
  <circle
     style="fill:none;stroke:#000000;stroke-width:0.34999999;stroke-linecap:butt;stroke-linejoin:miter"
     cx="133"
     cy="-154.16701"
     r="1.6"
     id="circle154"
     transform="scale(1,-1)" />
  <circle
     style="fill:none;stroke:#000000;stroke-width:0.34999999;stroke-linecap:butt;stroke-linejoin:miter"
     cx="144"
     cy="-245.66701"
     r="7.5999999"
     id="circle156"
     transform="scale(1,-1)" />
  <circle
     style="fill:none;stroke:#000000;stroke-width:0.34999999;stroke-linecap:butt;stroke-linejoin:miter"
     cx="144"
     cy="-233.66701"
     r="1.6"
     id="circle158"
     transform="scale(1,-1)" />
  <circle
     style="fill:none;stroke:#000000;stroke-width:0.34999999;stroke-linecap:butt;stroke-linejoin:miter"
     cx="460"
     cy="-233.66701"
     r="1.6"
     id="circle160"
     transform="scale(1,-1)" />
  <circle
     style="fill:none;stroke:#000000;stroke-width:0.34999999;stroke-linecap:butt;stroke-linejoin:miter"
     cx="460"
     cy="-245.66701"
     r="7.5999999"
     id="circle162"
     transform="scale(1,-1)" />
  <circle
     style="fill:none;stroke:#000000;stroke-width:0.34999999;stroke-linecap:butt;stroke-linejoin:miter"
     cx="144"
     cy="-257.66699"
     r="1.6"
     id="circle164"
     transform="scale(1,-1)" />
  <circle
     style="fill:none;stroke:#000000;stroke-width:0.34999999;stroke-linecap:butt;stroke-linejoin:miter"
     cx="197.63"
     cy="-256.03699"
     r="1.75"
     id="circle166"
     transform="scale(1,-1)" />
  <circle
     style="fill:none;stroke:#000000;stroke-width:0.34999999;stroke-linecap:butt;stroke-linejoin:miter"
     cx="460"
     cy="-257.66699"
     r="1.6"
     id="circle168"
     transform="scale(1,-1)" />
  <circle
     style="fill:none;stroke:#000000;stroke-width:0.34999999;stroke-linecap:butt;stroke-linejoin:miter"
     cx="406.37"
     cy="-256.03699"
     r="1.75"
     id="circle170"
     transform="scale(1,-1)" />
  <circle
     style="fill:none;stroke:#000000;stroke-width:0.34999999;stroke-linecap:butt;stroke-linejoin:miter"
     cx="125"
     cy="-162.16701"
     r="1.6"
     id="circle172"
     transform="scale(1,-1)" />
  <circle
     style="fill:none;stroke:#000000;stroke-width:0.34999999;stroke-linecap:butt;stroke-linejoin:miter"
     cx="197.63"
     cy="-49.027"
     r="1.75"
     id="circle174"
     transform="scale(1,-1)" />
  <circle
     style="fill:none;stroke:#000000;stroke-width:0.34999999;stroke-linecap:butt;stroke-linejoin:miter"
     cx="406.37"
     cy="-49.027"
     r="1.75"
     id="circle176"
     transform="scale(1,-1)" />
  <circle
     style="fill:none;stroke:#000000;stroke-width:0.34999999;stroke-linecap:butt;stroke-linejoin:miter"
     cx="479"
     cy="-162.16701"
     r="1.6"
     id="circle178"
     transform="scale(1,-1)" />
  <rect
     style="opacity:1;vector-effect:none;fill:#7178a8;fill-opacity:1;fill-rule:nonzero;stroke:none;stroke-width:0.1;stroke-linecap:butt;stroke-linejoin:miter;stroke-miterlimit:4;stroke-dasharray:none;stroke-dashoffset:0;stroke-opacity:1"
     id="rect4699"
     width="25.999983"
     height="20.866562"
     x="-485.99994"
     y="-62.533558"
     transform="scale(-1)" />
  <path
     style="fill:none;stroke:#000000;stroke-width:0.26458332px;stroke-linecap:butt;stroke-linejoin:miter;stroke-opacity:1"
     d="M 460,59.152378 V 98.181621"
     id="path4702"
     inkscape:connector-curvature="0" />
  <path
     style="fill:none;stroke:#000000;stroke-width:0.26458332px;stroke-linecap:butt;stroke-linejoin:miter;stroke-opacity:1"
     d="m 447.7189,78.667 h 24.5622"
     id="path4784"
     inkscape:connector-curvature="0" />
  <path
     inkscape:connector-curvature="0"
     id="path4786"
     d="m 447.7189,90.667 h 24.5622"
     style="fill:none;stroke:#000000;stroke-width:0.26458332px;stroke-linecap:butt;stroke-linejoin:miter;stroke-opacity:1" />
  <path
     style="fill:none;stroke:#000000;stroke-width:0.26458332px;stroke-linecap:butt;stroke-linejoin:miter;stroke-opacity:1"
     d="m 447.7189,66.667 h 24.5622"
     id="path4788"
     inkscape:connector-curvature="0" />
</svg>
